<svg width="30" height="30" viewBox="0 0 30 30" fill="none" xmlns="http://www.w3.org/2000/svg">
<path d="M14.375 18.75H8.75C7.42392 18.75 6.15215 19.2768 5.21447 20.2145C4.27678 21.1521 3.75 22.4239 3.75 23.75V26.25M26.7225 20.7825C27.2204 20.2846 27.5002 19.6092 27.5002 18.905C27.5002 18.2008 27.2204 17.5254 26.7225 17.0275C26.2246 16.5296 25.5492 16.2498 24.845 16.2498C24.1408 16.2498 23.4654 16.5296 22.9675 17.0275L17.955 22.0425C17.6578 22.3395 17.4403 22.7067 17.3225 23.11L16.2762 26.6975C16.2449 26.8051 16.243 26.9191 16.2708 27.0276C16.2986 27.1362 16.3551 27.2352 16.4343 27.3144C16.5135 27.3937 16.6126 27.4501 16.7211 27.4779C16.8297 27.5058 16.9437 27.5039 17.0512 27.4725L20.6387 26.4263C21.0421 26.3085 21.4092 26.0909 21.7062 25.7938L26.7225 20.7825ZM17.5 8.75C17.5 11.5114 15.2614 13.75 12.5 13.75C9.73858 13.75 7.5 11.5114 7.5 8.75C7.5 5.98858 9.73858 3.75 12.5 3.75C15.2614 3.75 17.5 5.98858 17.5 8.75Z" stroke="#3D3D3D" stroke-width="2" stroke-linecap="round" stroke-linejoin="round"/>
</svg>
