<svg width="18" height="18" viewBox="0 0 18 18" fill="none" xmlns="http://www.w3.org/2000/svg">
<path d="M12 12.75H15M2.99999 9.75H5.99999M2.99999 12V10.215C2.99999 8.625 2.22749 7.875 2.24999 6C2.27249 3.96 3.36749 1.5 5.62499 1.5C7.02749 1.5 7.49999 2.85 7.49999 4.125C7.49999 6.4575 5.99999 8.37 5.99999 10.635V12C5.99999 12.3978 5.84196 12.7794 5.56065 13.0607C5.27935 13.342 4.89782 13.5 4.49999 13.5C4.10217 13.5 3.72064 13.342 3.43933 13.0607C3.15803 12.7794 2.99999 12.3978 2.99999 12ZM15 15V13.215C15 11.625 15.7725 10.875 15.75 9C15.7275 6.96 14.6325 4.5 12.375 4.5C10.9725 4.5 10.5 5.85 10.5 7.125C10.5 9.4575 12 11.37 12 13.635V15C12 15.3978 12.158 15.7794 12.4393 16.0607C12.7206 16.342 13.1022 16.5 13.5 16.5C13.8978 16.5 14.2793 16.342 14.5607 16.0607C14.842 15.7794 15 15.3978 15 15Z" stroke="#28BDBD" stroke-linecap="round" stroke-linejoin="round"/>
</svg>
