<svg width="18" height="18" viewBox="0 0 18 18" fill="none" xmlns="http://www.w3.org/2000/svg">
<g clip-path="url(#clip0_112_1721)">
<path d="M15.0001 1.49996V4.49996M16.5001 2.99996H13.5001M8.26284 2.11046C8.29497 1.93842 8.38627 1.78303 8.52091 1.6712C8.65555 1.55938 8.82506 1.49817 9.00009 1.49817C9.17511 1.49817 9.34462 1.55938 9.47926 1.6712C9.61391 1.78303 9.7052 1.93842 9.73734 2.11046L10.5256 6.27896C10.5816 6.57533 10.7256 6.84793 10.9389 7.06119C11.1521 7.27446 11.4247 7.41848 11.7211 7.47446L15.8896 8.26272C16.0616 8.29485 16.217 8.38615 16.3288 8.52079C16.4407 8.65543 16.5019 8.82494 16.5019 8.99996C16.5019 9.17499 16.4407 9.3445 16.3288 9.47914C16.217 9.61378 16.0616 9.70508 15.8896 9.73721L11.7211 10.5255C11.4247 10.5814 11.1521 10.7255 10.9389 10.9387C10.7256 11.152 10.5816 11.4246 10.5256 11.721L9.73734 15.8895C9.7052 16.0615 9.61391 16.2169 9.47926 16.3287C9.34462 16.4405 9.17511 16.5018 9.00009 16.5018C8.82506 16.5018 8.65555 16.4405 8.52091 16.3287C8.38627 16.2169 8.29497 16.0615 8.26284 15.8895L7.47459 11.721C7.4186 11.4246 7.27458 11.152 7.06131 10.9387C6.84805 10.7255 6.57545 10.5814 6.27909 10.5255L2.11059 9.73721C1.93854 9.70508 1.78315 9.61378 1.67133 9.47914C1.5595 9.3445 1.49829 9.17499 1.49829 8.99996C1.49829 8.82494 1.5595 8.65543 1.67133 8.52079C1.78315 8.38615 1.93854 8.29485 2.11059 8.26272L6.27909 7.47446C6.57545 7.41848 6.84805 7.27446 7.06131 7.06119C7.27458 6.84793 7.4186 6.57533 7.47459 6.27896L8.26284 2.11046ZM4.50009 15C4.50009 15.8284 3.82851 16.5 3.00009 16.5C2.17166 16.5 1.50009 15.8284 1.50009 15C1.50009 14.1715 2.17166 13.5 3.00009 13.5C3.82851 13.5 4.50009 14.1715 4.50009 15Z" stroke="#28BDBD" stroke-linecap="round" stroke-linejoin="round"/>
</g>
<defs>
<clipPath id="clip0_112_1721">
<rect width="18" height="18" fill="white"/>
</clipPath>
</defs>
</svg>
