<svg width="18" height="18" viewBox="0 0 18 18" fill="none" xmlns="http://www.w3.org/2000/svg">
<path d="M9.00007 6.75005V9.75005M9.00007 12.75H9.00757M16.2976 13.5L10.2976 3.00005C10.1667 2.7692 9.97702 2.57719 9.74776 2.4436C9.5185 2.31001 9.25791 2.23962 8.99257 2.23962C8.72723 2.23962 8.46664 2.31001 8.23738 2.4436C8.00812 2.57719 7.8184 2.7692 7.68757 3.00005L1.68757 13.5C1.55533 13.7291 1.48599 13.989 1.48658 14.2534C1.48716 14.5179 1.55765 14.7775 1.6909 15.0059C1.82416 15.2343 2.01543 15.4235 2.24534 15.5542C2.47525 15.6848 2.73562 15.7524 3.00007 15.75H15.0001C15.2632 15.7498 15.5217 15.6803 15.7495 15.5485C15.9773 15.4167 16.1665 15.2274 16.298 14.9994C16.4294 14.7714 16.4986 14.5128 16.4985 14.2497C16.4985 13.9865 16.4292 13.728 16.2976 13.5Z" stroke="#D3C047" stroke-width="2" stroke-linecap="round" stroke-linejoin="round"/>
</svg>
