<svg width="27" height="24" viewBox="0 0 27 24" fill="none" xmlns="http://www.w3.org/2000/svg">
<path d="M24.0386 12H21.3288C20.8512 11.9991 20.3865 12.1413 20.0057 12.405C19.6249 12.6686 19.3489 13.0392 19.2199 13.46L16.6522 21.82C16.6356 21.8719 16.6011 21.9175 16.5538 21.95C16.5065 21.9825 16.449 22 16.3899 22C16.3308 22 16.2733 21.9825 16.226 21.95C16.1788 21.9175 16.1442 21.8719 16.1277 21.82L10.0962 2.18C10.0796 2.12807 10.0451 2.08246 9.99785 2.05C9.95057 2.01754 9.89306 2 9.83395 2C9.77485 2 9.71734 2.01754 9.67005 2.05C9.62277 2.08246 9.58826 2.12807 9.57171 2.18L7.00395 10.54C6.87552 10.9592 6.60117 11.3285 6.22255 11.592C5.84392 11.8555 5.38169 11.9988 4.90604 12H2.1853" stroke="black" stroke-width="2" stroke-linecap="round" stroke-linejoin="round"/>
</svg>
