<svg width="17" height="14" viewBox="0 0 17 14" fill="none" xmlns="http://www.w3.org/2000/svg">
<path d="M10.9167 4.54307C11.3765 5.15612 11.625 5.90176 11.625 6.66807C11.625 7.43438 11.3765 8.18002 10.9167 8.79307M13.2995 11.1759C13.8915 10.5839 14.3611 9.88115 14.6814 9.10769C15.0018 8.33424 15.1667 7.50525 15.1667 6.66807C15.1667 5.83089 15.0018 5.0019 14.6814 4.22844C14.3611 3.45499 13.8915 2.75221 13.2995 2.16024M7.375 1.49865C7.37486 1.39999 7.34549 1.30358 7.29061 1.22159C7.23573 1.1396 7.15779 1.07571 7.06663 1.03797C6.97547 1.00024 6.87517 0.990347 6.7784 1.00956C6.68163 1.02876 6.59271 1.07621 6.52288 1.1459L4.12588 3.54219C4.03337 3.63525 3.92332 3.70903 3.80209 3.75925C3.68087 3.80946 3.55088 3.83512 3.41967 3.83474H1.70833C1.52047 3.83474 1.3403 3.90936 1.20747 4.0422C1.07463 4.17504 1 4.35521 1 4.54307V8.79307C1 8.98093 1.07463 9.1611 1.20747 9.29394C1.3403 9.42677 1.52047 9.5014 1.70833 9.5014H3.41967C3.55088 9.50102 3.68087 9.52668 3.80209 9.57689C3.92332 9.62711 4.03337 9.70089 4.12588 9.79394L6.52217 12.1909C6.59201 12.2609 6.68105 12.3086 6.77801 12.3279C6.87497 12.3472 6.97549 12.3374 7.06682 12.2995C7.15816 12.2616 7.2362 12.1975 7.29106 12.1153C7.34592 12.033 7.37514 11.9364 7.375 11.8375V1.49865Z" stroke="#3D3D3D" stroke-width="2" stroke-linecap="round" stroke-linejoin="round"/>
</svg>
