<svg width="32" height="32" viewBox="0 0 32 32" fill="none" xmlns="http://www.w3.org/2000/svg">
<path d="M13.6906 27.9998C13.9247 28.4052 14.2613 28.7418 14.6667 28.9758C15.0721 29.2099 15.5319 29.3331 16 29.3331C16.468 29.3331 16.9279 29.2099 17.3332 28.9758C17.7386 28.7418 18.0752 28.4052 18.3093 27.9998M29.3333 10.6665C29.3333 7.59984 28.2666 4.93317 26.6666 2.6665M5.33329 2.6665C3.73329 4.93317 2.66663 7.59984 2.66663 10.6665M4.34929 20.4345C4.17511 20.6254 4.06016 20.8628 4.01843 21.1179C3.9767 21.3729 4.00998 21.6346 4.11423 21.871C4.21848 22.1075 4.38921 22.3086 4.60563 22.4498C4.82206 22.591 5.07486 22.6663 5.33329 22.6665H26.6666C26.925 22.6666 27.1779 22.5916 27.3944 22.4506C27.611 22.3097 27.7819 22.1088 27.8865 21.8725C27.991 21.6362 28.0246 21.3746 27.9832 21.1196C27.9418 20.8645 27.8272 20.627 27.6533 20.4358C25.88 18.6078 24 16.6652 24 10.6665C24 8.54477 23.1571 6.50994 21.6568 5.00965C20.1565 3.50936 18.1217 2.6665 16 2.6665C13.8782 2.6665 11.8434 3.50936 10.3431 5.00965C8.84281 6.50994 7.99996 8.54477 7.99996 10.6665C7.99996 16.6652 6.11863 18.6078 4.34929 20.4345Z" stroke="#3D3D3D" stroke-width="3" stroke-linecap="round" stroke-linejoin="round"/>
</svg>
