<svg width="32" height="32" viewBox="0 0 32 32" fill="none" xmlns="http://www.w3.org/2000/svg">
<path d="M29.3333 15.9998C29.3333 23.3636 23.3638 29.3332 16 29.3332M29.3333 15.9998C29.3333 8.63604 23.3638 2.6665 16 2.6665M29.3333 15.9998H2.66663M16 29.3332C8.63616 29.3332 2.66663 23.3636 2.66663 15.9998M16 29.3332C12.5763 25.7383 10.6666 20.9642 10.6666 15.9998C10.6666 11.0355 12.5763 6.26138 16 2.6665M16 29.3332C19.4236 25.7383 21.3333 20.9642 21.3333 15.9998C21.3333 11.0355 19.4236 6.26138 16 2.6665M2.66663 15.9998C2.66663 8.63604 8.63616 2.6665 16 2.6665" stroke="#3D3D3D" stroke-width="3" stroke-linecap="round" stroke-linejoin="round"/>
</svg>
