<svg width="32" height="32" viewBox="0 0 32 32" fill="none" xmlns="http://www.w3.org/2000/svg">
<path d="M9.33333 13.3332V9.33317C9.33333 7.56506 10.0357 5.86937 11.286 4.61913C12.5362 3.36888 14.2319 2.6665 16 2.6665C17.7681 2.6665 19.4638 3.36888 20.714 4.61913C21.9643 5.86937 22.6667 7.56506 22.6667 9.33317V13.3332M17.3333 21.3332C17.3333 22.0695 16.7364 22.6665 16 22.6665C15.2636 22.6665 14.6667 22.0695 14.6667 21.3332C14.6667 20.5968 15.2636 19.9998 16 19.9998C16.7364 19.9998 17.3333 20.5968 17.3333 21.3332ZM6.66667 13.3332H25.3333C26.8061 13.3332 28 14.5271 28 15.9998V26.6665C28 28.1393 26.8061 29.3332 25.3333 29.3332H6.66667C5.19391 29.3332 4 28.1393 4 26.6665V15.9998C4 14.5271 5.19391 13.3332 6.66667 13.3332Z" stroke="#3D3D3D" stroke-width="3" stroke-linecap="round" stroke-linejoin="round"/>
</svg>
