<svg width="32" height="32" viewBox="0 0 32 32" fill="none" xmlns="http://www.w3.org/2000/svg">
<path d="M16 29.3332C12.4637 29.3332 9.07235 27.9284 6.57187 25.4279C4.07138 22.9274 2.66663 19.5361 2.66663 15.9998C2.66663 12.4636 4.07138 9.07223 6.57187 6.57175C9.07235 4.07126 12.4637 2.6665 16 2.6665C19.5362 2.6665 22.9276 3.93079 25.428 6.18122C27.9285 8.43166 29.3333 11.4839 29.3333 14.6665C29.3333 16.4346 28.6309 18.1303 27.3807 19.3805C26.1304 20.6308 24.4347 21.3332 22.6666 21.3332H19.6666C19.2333 21.3332 18.8085 21.4538 18.4399 21.6816C18.0713 21.9095 17.7734 22.2354 17.5796 22.623C17.3858 23.0106 17.3038 23.4445 17.3427 23.876C17.3816 24.3076 17.54 24.7198 17.8 25.0665L18.2 25.5998C18.46 25.9465 18.6183 26.3587 18.6572 26.7903C18.6961 27.2219 18.6141 27.6558 18.4203 28.0433C18.2265 28.4309 17.9286 28.7569 17.56 28.9847C17.1914 29.2125 16.7666 29.3332 16.3333 29.3332H16Z" stroke="#3D3D3D" stroke-width="3" stroke-linecap="round" stroke-linejoin="round"/>
<path d="M18 9.33317C18.3681 9.33317 18.6666 9.03469 18.6666 8.6665C18.6666 8.29831 18.3681 7.99984 18 7.99984C17.6318 7.99984 17.3333 8.29831 17.3333 8.6665C17.3333 9.03469 17.6318 9.33317 18 9.33317Z" stroke="#3D3D3D" stroke-width="3" stroke-linecap="round" stroke-linejoin="round"/>
<path d="M23.3333 14.6665C23.7015 14.6665 24 14.368 24 13.9998C24 13.6316 23.7015 13.3332 23.3333 13.3332C22.9651 13.3332 22.6666 13.6316 22.6666 13.9998C22.6666 14.368 22.9651 14.6665 23.3333 14.6665Z" stroke="#3D3D3D" stroke-width="3" stroke-linecap="round" stroke-linejoin="round"/>
<path d="M8.66663 17.3332C9.03482 17.3332 9.33329 17.0347 9.33329 16.6665C9.33329 16.2983 9.03482 15.9998 8.66663 15.9998C8.29844 15.9998 7.99996 16.2983 7.99996 16.6665C7.99996 17.0347 8.29844 17.3332 8.66663 17.3332Z" stroke="#3D3D3D" stroke-width="3" stroke-linecap="round" stroke-linejoin="round"/>
<path d="M11.3333 10.6665C11.7015 10.6665 12 10.368 12 9.99984C12 9.63165 11.7015 9.33317 11.3333 9.33317C10.9651 9.33317 10.6666 9.63165 10.6666 9.99984C10.6666 10.368 10.9651 10.6665 11.3333 10.6665Z" stroke="#3D3D3D" stroke-width="3" stroke-linecap="round" stroke-linejoin="round"/>
</svg>
