<svg width="32" height="32" viewBox="0 0 32 32" fill="none" xmlns="http://www.w3.org/2000/svg">
<path d="M12.8947 5.51471C12.9682 4.74183 13.3272 4.0241 13.9015 3.50175C14.4759 2.97939 15.2243 2.68994 16.0007 2.68994C16.7771 2.68994 17.5255 2.97939 18.0999 3.50175C18.6743 4.0241 19.0332 4.74183 19.1067 5.51471C19.1509 6.01398 19.3147 6.49526 19.5842 6.91783C19.8538 7.34039 20.2212 7.69178 20.6553 7.94228C21.0895 8.19277 21.5776 8.33497 22.0783 8.35687C22.5791 8.37876 23.0777 8.27969 23.532 8.06804C24.2375 7.74774 25.0369 7.7014 25.7747 7.93802C26.5125 8.17464 27.1358 8.67731 27.5234 9.34818C27.911 10.0191 28.0351 10.8101 27.8716 11.5675C27.708 12.3248 27.2686 12.9942 26.6387 13.4454C26.2285 13.7332 25.8937 14.1155 25.6626 14.5601C25.4314 15.0046 25.3108 15.4983 25.3108 15.9994C25.3108 16.5004 25.4314 16.9941 25.6626 17.4387C25.8937 17.8832 26.2285 18.2656 26.6387 18.5534C27.2686 19.0046 27.708 19.6739 27.8716 20.4313C28.0351 21.1886 27.911 21.9797 27.5234 22.6506C27.1358 23.3214 26.5125 23.8241 25.7747 24.0607C25.0369 24.2973 24.2375 24.251 23.532 23.9307C23.0777 23.7191 22.5791 23.62 22.0783 23.6419C21.5776 23.6638 21.0895 23.806 20.6553 24.0565C20.2212 24.307 19.8538 24.6584 19.5842 25.0809C19.3147 25.5035 19.1509 25.9848 19.1067 26.484C19.0332 27.2569 18.6743 27.9746 18.0999 28.497C17.5255 29.0194 16.7771 29.3088 16.0007 29.3088C15.2243 29.3088 14.4759 29.0194 13.9015 28.497C13.3272 27.9746 12.9682 27.2569 12.8947 26.484C12.8506 25.9846 12.6868 25.5031 12.4172 25.0804C12.1476 24.6577 11.78 24.3062 11.3457 24.0557C10.9114 23.8052 10.4231 23.663 9.92215 23.6412C9.42123 23.6195 8.92244 23.7188 8.46804 23.9307C7.76256 24.251 6.96314 24.2973 6.22537 24.0607C5.48761 23.8241 4.86427 23.3214 4.47668 22.6506C4.0891 21.9797 3.96499 21.1886 4.12852 20.4313C4.29205 19.6739 4.73151 19.0046 5.36137 18.5534C5.77153 18.2656 6.10635 17.8832 6.33749 17.4387C6.56864 16.9941 6.68931 16.5004 6.68931 15.9994C6.68931 15.4983 6.56864 15.0046 6.33749 14.5601C6.10635 14.1155 5.77153 13.7332 5.36137 13.4454C4.73239 12.994 4.29371 12.3248 4.13057 11.568C3.96744 10.8112 4.09152 10.0208 4.47869 9.35032C4.86585 8.67989 5.48846 8.17734 6.22549 7.94036C6.96253 7.70338 7.76135 7.74889 8.46671 8.06804C8.92105 8.27969 9.4197 8.37876 9.92044 8.35687C10.4212 8.33497 10.9093 8.19277 11.3434 7.94228C11.7776 7.69178 12.145 7.34039 12.4145 6.91783C12.6841 6.49526 12.8479 6.01398 12.892 5.51471M20 16C20 18.2092 18.2092 20 16 20C13.7909 20 12 18.2092 12 16C12 13.7909 13.7909 12 16 12C18.2092 12 20 13.7909 20 16Z" stroke="#3D3D3D" stroke-width="3" stroke-linecap="round" stroke-linejoin="round"/>
</svg>
